<svg width="766" height="213" viewBox="0 0 766 213" fill="none" xmlns="http://www.w3.org/2000/svg">
<g opacity="0.3">
<g clip-path="url(#clip0_191_1553)">
<path d="M580.744 54.7582V42.2133L621.793 52.327V78.5839L580.744 88.7949V76.25L618.521 67.0114V63.8995L580.744 54.7582Z" fill="white"/>
<path d="M572.732 76.25V88.7949L531.783 78.6812V52.4243L572.732 42.2133V54.7582L534.955 63.8995V67.1087L572.732 76.25Z" fill="white"/>
</g>
<g clip-path="url(#clip1_191_1553)">
<path d="M532.675 95.602V83.057L573.724 93.1708V119.428L532.675 129.639V117.094L570.452 107.855V104.743L532.675 95.602Z" fill="white"/>
<path d="M524.663 117.094V129.639L483.713 119.525V93.268L524.663 83.057V95.602L486.886 104.743V107.952L524.663 117.094Z" fill="white"/>
</g>
<g clip-path="url(#clip2_191_1553)">
<path d="M580.744 136.447V123.902L621.793 134.016V160.272L580.744 170.483V157.938L618.521 148.7V145.588L580.744 136.447Z" fill="white"/>
<path d="M572.732 157.938V170.483L531.783 160.37V134.113L572.732 123.902V136.447L534.955 145.588V148.797L572.732 157.938Z" fill="white"/>
</g>
<g clip-path="url(#clip3_191_1553)">
<path d="M628.613 95.602V83.057L669.662 93.1708V119.428L628.613 129.639V117.094L666.39 107.855V104.743L628.613 95.602Z" fill="white"/>
<path d="M620.601 117.094V129.639L579.651 119.525V93.268L620.601 83.057V95.602L582.824 104.743V107.952L620.601 117.094Z" fill="white"/>
</g>
<g clip-path="url(#clip4_191_1553)">
<path d="M724.951 177.29V164.745L766 174.859V201.116L724.951 211.327V198.782L762.728 189.544V186.432L724.951 177.29Z" fill="white"/>
<path d="M716.939 198.782V211.327L675.99 201.213V174.957L716.939 164.745V177.29L679.162 186.432V189.641L716.939 198.782Z" fill="white"/>
</g>
<g clip-path="url(#clip5_191_1553)">
<path d="M676.882 136.447V123.902L717.931 134.016V160.272L676.882 170.483V157.938L714.659 148.7V145.588L676.882 136.447Z" fill="white"/>
<path d="M668.871 157.938V170.483L627.921 160.37V134.113L668.871 123.902V136.447L631.094 145.588V148.797L668.871 157.938Z" fill="white"/>
</g>
<path d="M716.93 117.483V130.028L675.57 119.915V93.6577L716.93 83.4467V95.9916L678.775 105.133V108.342L716.93 117.483Z" fill="white"/>
<g clip-path="url(#clip6_191_1553)">
<path d="M484.606 54.7582V42.2133L525.655 52.327V78.5839L484.606 88.7949V76.25L522.383 67.0114V63.8995L484.606 54.7582Z" fill="white"/>
<path d="M476.595 76.25V88.7949L435.645 78.6812V52.4243L476.595 42.2133V54.7582L438.818 63.8995V67.1087L476.595 76.25Z" fill="white"/>
</g>
<g clip-path="url(#clip7_191_1553)">
<path d="M436.537 13.9145V1.36951L477.586 11.4833V37.7402L436.537 47.9512V35.4062L474.314 26.1677V23.0558L436.537 13.9145Z" fill="white"/>
<path d="M428.525 35.4062V47.9512L387.576 37.8374V11.5805L428.525 1.36951V13.9145L390.748 23.0558V26.2649L428.525 35.4062Z" fill="white"/>
</g>
<g clip-path="url(#clip8_191_1553)">
<path d="M436.537 95.602V83.057L477.586 93.1708V119.428L436.537 129.639V117.094L474.314 107.855V104.743L436.537 95.602Z" fill="white"/>
<path d="M428.525 117.094V129.639L387.576 119.525V93.268L428.525 83.057V95.602L390.748 104.743V107.952L428.525 117.094Z" fill="white"/>
</g>
<g clip-path="url(#clip9_191_1553)">
<path d="M484.606 136.447V123.902L525.655 134.016V160.272L484.606 170.483V157.938L522.383 148.7V145.588L484.606 136.447Z" fill="white"/>
<path d="M476.595 157.938V170.483L435.645 160.37V134.113L476.595 123.902V136.447L438.818 145.588V148.797L476.595 157.938Z" fill="white"/>
</g>
<g clip-path="url(#clip10_191_1553)">
<path d="M628.813 177.29V164.745L669.862 174.859V201.116L628.813 211.327V198.782L666.59 189.544V186.432L628.813 177.29Z" fill="white"/>
<path d="M620.801 198.782V211.327L579.851 201.213V174.957L620.801 164.745V177.29L583.024 186.432V189.641L620.801 198.782Z" fill="white"/>
</g>
<g clip-path="url(#clip11_191_1553)">
<path d="M340.399 13.9145V1.36951L381.448 11.4833V37.7402L340.399 47.9512V35.4062L378.176 26.1677V23.0558L340.399 13.9145Z" fill="white"/>
<path d="M332.388 35.4062V47.9512L291.438 37.8374V11.5805L332.388 1.36951V13.9145L294.611 23.0558V26.2649L332.388 35.4062Z" fill="white"/>
</g>
<g clip-path="url(#clip12_191_1553)">
<path d="M195.19 54.7582V42.2133L236.239 52.327V78.5839L195.19 88.7949V76.25L232.967 67.0114V63.8995L195.19 54.7582Z" fill="white"/>
<path d="M187.179 76.25V88.7949L146.229 78.6812V52.4243L187.179 42.2133V54.7582L149.402 63.8995V67.1087L187.179 76.25Z" fill="white"/>
</g>
<g clip-path="url(#clip13_191_1553)">
<path d="M146.12 12.9418V0.39687L187.169 10.5106V36.7675L146.12 46.9785V34.4336L183.897 25.195V22.0831L146.12 12.9418Z" fill="white"/>
<path d="M138.108 34.4336V46.9785L97.1585 36.8648V10.6079L138.108 0.39687V12.9418L100.331 22.0831V25.2923L138.108 34.4336Z" fill="white"/>
</g>
<g clip-path="url(#clip14_191_1553)">
<path d="M340.399 95.602V83.057L381.448 93.1708V119.428L340.399 129.639V117.094L378.176 107.855V104.743L340.399 95.602Z" fill="white"/>
<path d="M332.388 117.094V129.639L291.438 119.525V93.268L332.388 83.057V95.602L294.611 104.743V107.952L332.388 117.094Z" fill="white"/>
</g>
<g clip-path="url(#clip15_191_1553)">
<path d="M388.468 136.447V123.902L429.517 134.016V160.272L388.468 170.483V157.938L426.245 148.7V145.588L388.468 136.447Z" fill="white"/>
<path d="M380.456 157.938V170.483L339.506 160.37V134.113L380.456 123.902V136.447L342.679 145.588V148.797L380.456 157.938Z" fill="white"/>
</g>
<g clip-path="url(#clip16_191_1553)">
<path d="M532.675 177.29V164.745L573.724 174.859V201.116L532.675 211.327V198.782L570.452 189.544V186.432L532.675 177.29Z" fill="white"/>
<path d="M524.663 198.782V211.327L483.713 201.213V174.957L524.663 164.745V177.29L486.886 186.432V189.641L524.663 198.782Z" fill="white"/>
</g>
<g clip-path="url(#clip17_191_1553)">
<path d="M388.468 54.7582V42.2133L429.517 52.327V78.5839L388.468 88.7949V76.25L426.245 67.0114V63.8995L388.468 54.7582Z" fill="white"/>
<path d="M380.456 76.25V88.7949L339.506 78.6812V52.4243L380.456 42.2133V54.7582L342.679 63.8995V67.1087L380.456 76.25Z" fill="white"/>
</g>
<g clip-path="url(#clip18_191_1553)">
<path d="M244.261 13.9145V1.36951L285.31 11.4833V37.7402L244.261 47.9512V35.4062L282.038 26.1677V23.0558L244.261 13.9145Z" fill="white"/>
<path d="M236.249 35.4062V47.9512L195.299 37.8374V11.5805L236.249 1.36951V13.9145L198.472 23.0558V26.2649L236.249 35.4062Z" fill="white"/>
</g>
<g clip-path="url(#clip19_191_1553)">
<path d="M99.0525 54.7582V42.2133L140.102 52.327V78.5839L99.0525 88.7949V76.25L136.83 67.0114V63.8995L99.0525 54.7582Z" fill="white"/>
<path d="M91.041 76.25V88.7949L50.0911 78.6812V52.4243L91.041 42.2133V54.7582L53.264 63.8995V67.1087L91.041 76.25Z" fill="white"/>
</g>
<g clip-path="url(#clip20_191_1553)">
<path d="M49.9822 12.9418V0.39687L91.0312 10.5106V36.7675L49.9822 46.9785V34.4336L87.7592 25.195V22.0831L49.9822 12.9418Z" fill="white"/>
<path d="M41.9707 34.4336V46.9785L1.0208 36.8648V10.6079L41.9707 0.39687V12.9418L4.19367 22.0831V25.2923L41.9707 34.4336Z" fill="white"/>
</g>
<g clip-path="url(#clip21_191_1553)">
<path d="M292.33 54.7582V42.2133L333.379 52.327V78.5839L292.33 88.7949V76.25L330.107 67.0114V63.8995L292.33 54.7582Z" fill="white"/>
<path d="M284.318 76.25V88.7949L243.368 78.6812V52.4243L284.318 42.2133V54.7582L246.541 63.8995V67.1087L284.318 76.25Z" fill="white"/>
</g>
<g clip-path="url(#clip22_191_1553)">
<path d="M244.261 95.602V83.057L285.31 93.1708V119.428L244.261 129.639V117.094L282.038 107.855V104.743L244.261 95.602Z" fill="white"/>
<path d="M236.249 117.094V129.639L195.299 119.525V93.268L236.249 83.057V95.602L198.472 104.743V107.952L236.249 117.094Z" fill="white"/>
</g>
<g clip-path="url(#clip23_191_1553)">
<path d="M292.33 136.447V123.902L333.379 134.016V160.272L292.33 170.483V157.938L330.107 148.7V145.588L292.33 136.447Z" fill="white"/>
<path d="M284.318 157.938V170.483L243.368 160.37V134.113L284.318 123.902V136.447L246.541 145.588V148.797L284.318 157.938Z" fill="white"/>
</g>
<g clip-path="url(#clip24_191_1553)">
<path d="M436.537 177.29V164.745L477.586 174.859V201.116L436.537 211.327V198.782L474.314 189.544V186.432L436.537 177.29Z" fill="white"/>
<path d="M428.525 198.782V211.327L387.576 201.213V174.957L428.525 164.745V177.29L390.748 186.432V189.641L428.525 198.782Z" fill="white"/>
</g>
</g>
<defs>
<clipPath id="clip0_191_1553">
<rect width="90.1294" height="47.6514" fill="white" transform="translate(621.793 89.7676) rotate(-180)"/>
</clipPath>
<clipPath id="clip1_191_1553">
<rect width="90.1294" height="47.6514" fill="white" transform="translate(573.724 130.611) rotate(-180)"/>
</clipPath>
<clipPath id="clip2_191_1553">
<rect width="90.1294" height="47.6514" fill="white" transform="translate(621.793 171.456) rotate(-180)"/>
</clipPath>
<clipPath id="clip3_191_1553">
<rect width="90.1294" height="47.6514" fill="white" transform="translate(669.662 130.611) rotate(-180)"/>
</clipPath>
<clipPath id="clip4_191_1553">
<rect width="90.1294" height="47.6514" fill="white" transform="translate(766 212.3) rotate(-180)"/>
</clipPath>
<clipPath id="clip5_191_1553">
<rect width="90.1294" height="47.6514" fill="white" transform="translate(717.931 171.456) rotate(-180)"/>
</clipPath>
<clipPath id="clip6_191_1553">
<rect width="90.1294" height="47.6514" fill="white" transform="translate(525.655 89.7676) rotate(-180)"/>
</clipPath>
<clipPath id="clip7_191_1553">
<rect width="90.1294" height="47.6514" fill="white" transform="translate(477.586 48.9238) rotate(-180)"/>
</clipPath>
<clipPath id="clip8_191_1553">
<rect width="90.1294" height="47.6514" fill="white" transform="translate(477.586 130.611) rotate(-180)"/>
</clipPath>
<clipPath id="clip9_191_1553">
<rect width="90.1294" height="47.6514" fill="white" transform="translate(525.655 171.456) rotate(-180)"/>
</clipPath>
<clipPath id="clip10_191_1553">
<rect width="90.1294" height="47.6514" fill="white" transform="translate(669.862 212.3) rotate(-180)"/>
</clipPath>
<clipPath id="clip11_191_1553">
<rect width="90.1294" height="47.6514" fill="white" transform="translate(381.448 48.9238) rotate(-180)"/>
</clipPath>
<clipPath id="clip12_191_1553">
<rect width="90.1295" height="47.6514" fill="white" transform="translate(236.239 89.7676) rotate(-180)"/>
</clipPath>
<clipPath id="clip13_191_1553">
<rect width="90.1295" height="47.6514" fill="white" transform="translate(187.169 47.9512) rotate(-180)"/>
</clipPath>
<clipPath id="clip14_191_1553">
<rect width="90.1294" height="47.6514" fill="white" transform="translate(381.448 130.611) rotate(-180)"/>
</clipPath>
<clipPath id="clip15_191_1553">
<rect width="90.1295" height="47.6514" fill="white" transform="translate(429.517 171.456) rotate(-180)"/>
</clipPath>
<clipPath id="clip16_191_1553">
<rect width="90.1294" height="47.6514" fill="white" transform="translate(573.724 212.3) rotate(-180)"/>
</clipPath>
<clipPath id="clip17_191_1553">
<rect width="90.1295" height="47.6514" fill="white" transform="translate(429.517 89.7676) rotate(-180)"/>
</clipPath>
<clipPath id="clip18_191_1553">
<rect width="90.1294" height="47.6514" fill="white" transform="translate(285.31 48.9238) rotate(-180)"/>
</clipPath>
<clipPath id="clip19_191_1553">
<rect width="90.1294" height="47.6514" fill="white" transform="translate(140.102 89.7676) rotate(-180)"/>
</clipPath>
<clipPath id="clip20_191_1553">
<rect width="90.1295" height="47.6514" fill="white" transform="translate(91.0312 47.9512) rotate(-180)"/>
</clipPath>
<clipPath id="clip21_191_1553">
<rect width="90.1294" height="47.6514" fill="white" transform="translate(333.379 89.7676) rotate(-180)"/>
</clipPath>
<clipPath id="clip22_191_1553">
<rect width="90.1294" height="47.6514" fill="white" transform="translate(285.31 130.611) rotate(-180)"/>
</clipPath>
<clipPath id="clip23_191_1553">
<rect width="90.1294" height="47.6514" fill="white" transform="translate(333.379 171.456) rotate(-180)"/>
</clipPath>
<clipPath id="clip24_191_1553">
<rect width="90.1294" height="47.6514" fill="white" transform="translate(477.586 212.3) rotate(-180)"/>
</clipPath>
</defs>
</svg>
