<svg width="287" height="43" viewBox="0 0 287 43" fill="none" xmlns="http://www.w3.org/2000/svg">
<g clip-path="url(#clip0_15_291)">
<path d="M35.0378 0.819048H47.9422L37.488 42.181H10.5359L0 0.819048H12.9044L22.3785 38.9048H25.6454L35.0378 0.819048ZM49.5757 20.9676C49.5757 7.86286 58.4781 0 71.3008 0C84.1235 0 93.1076 7.61714 93.1076 20.1486V24.2438H61.8267C61.8267 28.9943 65.257 32.3524 72.6892 32.3524C77.2629 32.3524 80.6932 30.7143 81.51 27.6019H94.5777C93.761 33.581 86.9821 43 72.6892 43C56.8446 43 49.5757 32.68 49.5757 20.9676ZM61.8267 16.8724H80.8566C80.8566 13.76 78.5697 10.6476 71.3008 10.6476C64.0319 10.6476 61.8267 13.76 61.8267 16.8724ZM131.249 0.819048H144.153L133.699 42.181H106.747L96.2112 0.819048H109.116L118.59 38.9048H121.857L131.249 0.819048ZM145.787 20.9676C145.787 7.86286 154.689 0 167.512 0C180.335 0 189.319 7.61714 189.319 20.1486V24.2438H158.038C158.038 28.9943 161.468 32.3524 168.9 32.3524C173.474 32.3524 176.904 30.7143 177.721 27.6019H190.789C189.972 33.581 183.193 43 168.9 43C153.056 43 145.787 32.68 145.787 20.9676ZM158.038 16.8724H177.068C177.068 13.76 174.781 10.6476 167.512 10.6476C160.243 10.6476 158.038 13.76 158.038 16.8724ZM227.46 0.819048H240.365L229.91 42.181H202.958L192.422 0.819048H205.327L214.801 38.9048H218.068L227.46 0.819048ZM241.998 20.9676C241.998 7.86286 250.9 0 263.723 0C276.546 0 285.53 7.61714 285.53 20.1486V24.2438H254.249C254.249 28.9943 257.679 32.3524 265.112 32.3524C269.685 32.3524 273.116 30.7143 273.932 27.6019H287C286.183 33.581 279.404 43 265.112 43C249.267 43 241.998 32.68 241.998 20.9676ZM254.249 16.8724H273.279C273.279 13.76 270.992 10.6476 263.723 10.6476C256.454 10.6476 254.249 13.76 254.249 16.8724Z" fill="#F2F2F2"/>
</g>
<defs>
<clipPath id="clip0_15_291">
<rect width="287" height="43" fill="white"/>
</clipPath>
</defs>
</svg>
